<?xml version="1.0" encoding="utf-8"?>
<!-- Generator: Adobe Illustrator 16.0.0, SVG Export Plug-In . SVG Version: 6.00 Build 0)  -->
<!DOCTYPE svg PUBLIC "-//W3C//DTD SVG 1.1//EN" "http://www.w3.org/Graphics/SVG/1.1/DTD/svg11.dtd">
<svg version="1.1" id="Capa_1" xmlns="http://www.w3.org/2000/svg" xmlns:xlink="http://www.w3.org/1999/xlink" x="0px" y="0px"
	 width="200px" height="36.782px" viewBox="0 0 200 36.782" enable-background="new 0 0 200 36.782" xml:space="preserve">
<g transform="translate(46.666 11.963)">
	<path fill="#0080CE" d="M95.754,13.215h0.438c5.474-0.22,9.743-4.817,9.523-10.29c-0.219-5.475-4.816-9.743-10.29-9.524
		C90.061-6.489,85.9-2.111,85.9,3.253v9.962h9.524H95.754z M80.646,3.252L80.646,3.252c0-8.429,6.787-15.216,15.217-15.216
		c8.429,0,15.216,6.787,15.216,15.216c0,8.431-6.787,15.217-15.216,15.217H85.792v2.736c0,1.751-2.189,3.613-5.036,3.613v-3.394
		v-0.329v-9.415c0,0.219,0,0.329,0,0.547v-0.985c0-0.219,0-0.438,0-0.656V4.128C80.646,3.91,80.646,3.581,80.646,3.252"/>
	<path fill="#0080CE" d="M-41.302,3.252c0,5.475,4.487,9.963,9.962,9.963c5.474,0,9.962-4.488,9.962-9.963
		c0-5.473-4.488-9.961-9.962-9.961l0,0C-36.923-6.709-41.302-2.22-41.302,3.252L-41.302,3.252 M-46.666,3.252L-46.666,3.252
		c0-8.429,6.787-15.216,15.216-15.216s15.216,6.787,15.216,15.216c0,8.431-6.787,15.217-15.216,15.217
		C-39.879,18.47-46.666,11.682-46.666,3.252"/>
	<path fill="#0080CE" d="M-12.84-11.635V3.691c0,6.24,6.459,14.45,13.026,14.45h10.837c0-2.299-2.407-5.036-4.05-5.036H0.734
		c-3.065,0-8.539-4.707-8.539-9.305V-8.023C-7.695-9.773-9.884-11.635-12.84-11.635"/>
	<path fill="#0080CE" d="M17.921-11.853c-2.956,0-5.036,1.861-5.036,3.612V2.596c0,0.219,0,0.438,0,0.656v0.876
		c0-0.219,0-0.327,0-0.547v10.51v4.379c2.956,0,5.145-1.861,5.145-3.613V4.128c0-0.219,0-0.438,0-0.656V2.487
		c0,0.219,0,0.329,0,0.547V-7.147v-0.328L17.921-11.853L17.921-11.853z"/>
	<path fill="#0080CE" d="M21.424,18.141V2.815c0-6.24,6.458-14.45,13.027-14.45h4.707c4.05,0,7.99,3.175,10.509,7.006
		c2.518-3.832,6.459-7.006,10.509-7.006h3.941c6.567,0,13.026,8.21,13.026,14.45v15.326c-2.956,0-5.036-1.861-5.036-3.503V2.705
		c0-4.598-5.474-9.305-8.539-9.305h-2.846c-3.064,0-8.539,4.708-8.539,9.305v11.933c0,0.108,0,0.219-0.108,0.438v3.175
		c-2.956,0-5.036-1.86-5.036-3.503V2.705c0-4.598-5.475-9.305-8.539-9.305h-3.613c-3.064,0-8.539,4.708-8.539,9.305v11.933
		C26.46,16.28,24.38,18.141,21.424,18.141"/>
	<path fill="#0080CE" d="M114.363-11.635c2.955,0,5.035,1.861,5.035,3.613V2.815c0,0.219,0,0.438,0,0.657v0.876
		c0-0.22,0-0.329,0-0.547V14.31v4.379c-2.955,0-5.035-1.861-5.035-3.612V4.348c0-0.22,0-0.438,0-0.657V2.705c0,0.22,0,0.328,0,0.547
		v-10.18v-0.329V-11.635z"/>
	<path fill="#0080CE" d="M138.118,13.215h0.438h9.524V3.253c0-5.474-4.488-9.962-9.962-9.962s-9.962,4.488-9.962,9.962
		c0,5.363,4.27,9.742,9.523,9.853L138.118,13.215z M153.334,3.252L153.334,3.252c0,0.329,0,0.549,0,0.876v6.459
		c0,0.22,0,0.438,0,0.657v0.875c0-0.219,0-0.328,0-0.547v6.897h-15.216c-8.43,0-15.216-6.787-15.216-15.218
		c0-8.429,6.786-15.216,15.216-15.216C146.547-11.964,153.334-5.066,153.334,3.252L153.334,3.252"/>
</g>
</svg>
